<svg xmlns="http://www.w3.org/2000/svg" viewBox="0 0 63.63 55.79"><g id="Layer_2" data-name="Layer 2"><g id="icons"><path d="M22.91,21.19a4.88,4.88,0,1,1,4.85-4.88H27a4.05,4.05,0,1,0-4.05,4.08Z" fill="#212a3f"/><path d="M23,45.93a5,5,0,0,1-1.15-.14,4.66,4.66,0,0,1-2.93-2.19,4.85,4.85,0,0,1,.57-5.74l2.48-2.76.6.53L20,38.4a4.06,4.06,0,0,0-.47,4.8A3.91,3.91,0,0,0,25,44.53a4,4,0,0,0,2-3.37h.8a4.81,4.81,0,0,1-2.33,4.05A4.7,4.7,0,0,1,23,45.93Z" fill="#212a3f"/><path d="M31.74,45.86a4.63,4.63,0,0,1-2.47-.71,4.57,4.57,0,0,1-2.25-4V16.32a4.83,4.83,0,0,1,4.86-4.89,5,5,0,0,1,3.19,1.22l-.53.6a4.16,4.16,0,0,0-2.66-1,4,4,0,0,0-4.06,4.09V41.1A3.94,3.94,0,0,0,32.61,45a4,4,0,0,0,2.07-6.61L34.35,38l.57-.56.34.34a4.85,4.85,0,0,1,.58,5.76,4.91,4.91,0,0,1-3.05,2.19A4.7,4.7,0,0,1,31.74,45.86Z" fill="#212a3f"/><path d="M18.5,41.38a5.14,5.14,0,0,1-4-2c-1.6-2.13-1.19-5.29-1-6.15a7.26,7.26,0,0,1-2.42-5.39,9.31,9.31,0,0,1,2.92-6c-.88-3.57.69-5,1.71-5.48l.36.71c-1,.51-2.05,1.76-1.24,4.8l.06.24-.18.16s-2.76,2.45-2.83,5.59a6.59,6.59,0,0,0,2.33,5l.16.15,0,.22s-.75,3.58.86,5.72a4.36,4.36,0,0,0,3.39,1.64Z" fill="#212a3f"/><path d="M24.93,18a2.77,2.77,0,0,1-1.66-.56l.48-.64a2,2,0,0,0,1.45.38,1.84,1.84,0,0,0,1.23-.73,1.92,1.92,0,0,0-.35-2.7l.49-.64a2.74,2.74,0,0,1,.5,3.82,2.63,2.63,0,0,1-1.75,1A2.56,2.56,0,0,1,24.93,18Z" fill="#212a3f"/><path d="M20,25.41a2.77,2.77,0,0,1-2-3.3,2.74,2.74,0,0,1,3.32-2l-.16.79a1.94,1.94,0,1,0-.94,3.77Z" fill="#212a3f"/><path d="M17.58,32.68v-.8c2,0,4.93-4,5.89-5.51a2.85,2.85,0,0,1,2-1,2.76,2.76,0,0,1,2,.73L27,26.7a1.91,1.91,0,0,0-1.43-.52,2,2,0,0,0-1.42.67C23.77,27.4,20.37,32.68,17.58,32.68Z" fill="#212a3f"/><path d="M27.8,40.34,27,40.23a1.22,1.22,0,0,0-.65-1.16A1.42,1.42,0,0,0,25.31,39a1.18,1.18,0,0,0-.69.61l-.71-.35a1.93,1.93,0,0,1,1.15-1,2.19,2.19,0,0,1,1.68.14A2,2,0,0,1,27.8,40.34Z" fill="#212a3f"/><polygon points="20.48 37.45 17.96 36.63 18.2 35.87 20.73 36.69 20.48 37.45" fill="#212a3f"/><path d="M20.18,30.84A14.44,14.44,0,0,0,16.39,28l.35-.71a14.53,14.53,0,0,1,4,3.06Z" fill="#212a3f"/><path d="M34.94,21a3.6,3.6,0,0,0-4.09-2l-.18-.78a4.42,4.42,0,0,1,5,2.46Z" fill="#212a3f"/><path d="M31.49,39.43l-.32,0,.07-.79a3.84,3.84,0,0,0,2.46-.79,3.59,3.59,0,0,0,1.45-3l.8-.06a4.39,4.39,0,0,1-1.77,3.7A4.75,4.75,0,0,1,31.49,39.43Z" fill="#212a3f"/><path d="M27.76,35.37H27a2.3,2.3,0,0,1,1.35-1.93,2.69,2.69,0,0,1,2-.1,2,2,0,0,1,1.27,1l-.71.36a1.3,1.3,0,0,0-.8-.58,1.94,1.94,0,0,0-1.38,0A1.54,1.54,0,0,0,27.76,35.37Z" fill="#212a3f"/><path d="M36.28,41.45l-.05-.8A4.42,4.42,0,0,0,39.62,39c1.61-2.15.86-5.7.86-5.73l0-.22.16-.16A6.63,6.63,0,0,0,42.92,28c-.08-3.16-2.8-5.57-2.83-5.6l.53-.6c.12.11,3,2.68,3.1,6.18a7.29,7.29,0,0,1-2.42,5.39c.15.87.56,4-1,6.16A5.19,5.19,0,0,1,36.28,41.45Z" fill="#212a3f"/><path d="M29.35,30.46a8.29,8.29,0,0,1-1.85-.21l.21-.77c.17,0,4.16,1.08,5.86-2.06l.7.38A5.28,5.28,0,0,1,29.35,30.46Z" fill="#212a3f"/><path d="M35.53,30.59a4.86,4.86,0,0,1-2.94-1.09l.51-.62c.11.09,2.64,2.14,4.75-.22l.59.54A3.81,3.81,0,0,1,35.53,30.59Z" fill="#212a3f"/><path d="M40.52,22.14l-.69-.42a4,4,0,0,0,.63-2.14,3.92,3.92,0,0,0-3.88-3.94,3.85,3.85,0,0,0-3.73,2.83l-.77-.21a4.63,4.63,0,0,1,4.5-3.42,4.72,4.72,0,0,1,4.68,4.74A4.84,4.84,0,0,1,40.52,22.14Z" fill="#212a3f"/><path d="M31.39,24.54c-1.68,0-4.13-2.09-4.23-2.18l.52-.61c.64.55,2.56,2,3.71,2Z" fill="#212a3f"/><path d="M40.1,22.36a11.26,11.26,0,0,0-1.37-1l.35-.72a11.79,11.79,0,0,1,1.53,1.06Z" fill="#212a3f"/><path d="M61.68,35.3c-1,.28-2.57,1-2.65,2.55a1.6,1.6,0,0,0,1.56,1.78c.92,0,3-.91,3-2.56A1.91,1.91,0,0,0,62,35.26,1.17,1.17,0,0,0,61.68,35.3Z" fill="#ff68c1"/><path d="M58.62,49.76c-1.92,0-2.87-4-4.84-4.55s.27-3.76,4.93-3c1.9.31,3.92,1.94,3.88,3.86A4.11,4.11,0,0,1,58.62,49.76Z" fill="#ffcd66"/><path d="M1.25,36.6A27.41,27.41,0,0,1,20.27,2l.21.77A26.64,26.64,0,0,0,2,36.37Z" fill="#212a3f"/><polygon points="18.79 6.27 18.1 5.86 20.09 2.46 16.56 0.72 16.91 0 21.22 2.13 18.79 6.27" fill="#212a3f"/><path d="M27.39,55.79a27.25,27.25,0,0,1-19-7.61L9,47.6a26.6,26.6,0,0,0,37.83-1l.58.54A27.5,27.5,0,0,1,27.39,55.79Z" fill="#212a3f"/><polygon points="12.91 47.23 12.92 48.03 8.97 48.07 9.3 52 8.51 52.07 8.1 47.28 12.91 47.23" fill="#212a3f"/><path d="M53.83,35.58l-.78-.21a26.32,26.32,0,0,0,.93-7,26.66,26.66,0,0,0-21.23-26l.16-.79a27.42,27.42,0,0,1,20.92,34Z" fill="#212a3f"/><polygon points="50.84 32.12 51.54 31.73 53.47 35.16 56.76 32.98 57.2 33.65 53.2 36.31 50.84 32.12" fill="#212a3f"/></g></g></svg>