<svg width="1519" height="546" viewBox="0 0 1519 546" fill="none" xmlns="http://www.w3.org/2000/svg">
<path d="M1062.92 381.173L1155.27 381.173C1364.26 366.956 1529.78 210.198 1517.5 0H0C12.5321 275.705 246.156 545.732 533.977 545.732C649.841 545.732 785.294 485.281 834.55 451.698C932.614 391.248 1027.65 379.493 1062.92 381.173Z" fill="#C4C4C4"/>
<path d="M1062.92 381.173L1155.27 381.173C1364.26 366.956 1529.78 210.198 1517.5 0H0C12.5321 275.705 246.156 545.732 533.977 545.732C649.841 545.732 785.294 485.281 834.55 451.698C932.614 391.248 1027.65 379.493 1062.92 381.173Z" fill="url(#paint0_linear)"/>
<defs>
<linearGradient id="paint0_linear" x1="710.846" y1="43.8111" x2="694.257" y2="731.666" gradientUnits="userSpaceOnUse">
<stop offset="0.0104167" stop-color="#373851"/>
<stop offset="0.941013" stop-color="#867EB1"/>
</linearGradient>
</defs>
</svg>
