<?xml version="1.0" encoding="UTF-8"?>
<svg width="84px" height="87px" viewBox="0 0 84 87" version="1.1" xmlns="http://www.w3.org/2000/svg" xmlns:xlink="http://www.w3.org/1999/xlink">
    <!-- Generator: Sketch 61.2 (89653) - https://sketch.com -->
    <title>Group 7</title>
    <desc>Created with Sketch.</desc>
    <g id="Page-1" stroke="none" stroke-width="1" fill="none" fill-rule="evenodd">
        <g id="Group-7" transform="translate(1.000000, 0.000000)">
            <path d="M81.5021973,10 L82,74 C71.5423177,82 57.5240885,86 39.9453125,86 C22.3665365,86 9.05143229,82 0,74 L0.476806641,10.5" id="Rectangle" stroke="#000000"></path>
            <ellipse id="Oval" stroke="#000000" cx="41" cy="10.5" rx="40.5" ry="10"></ellipse>
            <path d="M1.5,42.5 C3.79003906,43.1689453 6.56152344,42.1279297 9.81445312,39.3769531 C12.8895755,41.4589844 15.806405,42.5 18.5649414,42.5 C21.3234778,42.5 23.9281328,41.4589844 26.3789062,39.3769531 C29.4923028,41.4589844 32.4504734,42.5 35.253418,42.5 C38.0563626,42.5 40.7085436,41.4589844 43.2099609,39.3769531 C45.8150326,41.5367981 48.606211,42.5778137 51.5834961,42.5 C54.5607812,42.4221863 57.361888,41.2350118 59.9868164,38.9384766 C62.697336,41.2272053 65.1221407,42.4143798 67.2612305,42.5 C69.4003202,42.5856202 71.6517851,41.5856202 74.015625,39.5 C75.8072917,41.8333333 77.96875,42.8333333 80.5,42.5" id="Line-7" stroke="#000000" stroke-linecap="square"></path>
            <path d="M35.4238214,14.3004906 C37.4152605,15.8235281 39.8304042,11.9721719 39.8304042,9.1000452 C39.8304042,6.2279185 37.8575099,4.64501953 35.4238214,4.64501953 C34.0399498,4.64501953 32.8050721,4.65244223 31.9972064,5.830023 C31.3843526,6.72334579 30.4224242,8.04786755 31.0172387,9.1000452 C31.9972064,10.833527 33.3192583,9.89978054 34.0758116,10.833527 C34.8781006,11.8237209 34.0758116,13.2695429 35.4238214,14.3004906 Z" id="Oval" fill="#FBD078"></path>
            <path d="M42.8611289,10 C43.889002,10 44.7222577,8.90468178 44.7222577,7.58621282 C44.7222577,6.98276603 45.3471778,5.93351112 44.7222577,5.17242564 C44.4037094,4.78446795 43.3437156,5.17242564 42.8611289,5.17242564 C41.8332558,5.17242564 41,6.25311497 41,7.58621282 C41,8.91931067 41.8332558,10 42.8611289,10 Z" id="Oval-Copy-96" fill="#FA74BF"></path>
        </g>
    </g>
</svg>