<svg width="132" height="132" viewBox="0 0 132 132" fill="none" xmlns="http://www.w3.org/2000/svg">
<path d="M104.712 13.5027C100.458 17.1326 101.775 23.8879 103.497 26.5094C107.75 31.3491 110.181 28.3242 110.181 25.6019C110.181 24.368 111.093 22.5771 112.308 22.2746C113.827 21.6696 115.286 21.8511 117.473 18.9473C119.661 16.0435 117.473 12.6961 116.258 11.6878C114.536 10.5787 109.698 9.24775 104.712 13.5027Z" fill="#FFD077"/>
<path d="M97.5324 6.80932C95.3141 7.29623 94.9649 9.85246 95.0676 11.0697C95.273 12.6927 96.1767 15.9997 98.1485 16.2431C100.613 16.5474 101.229 16.8517 102.462 13.5043C103.1 11.7713 102.826 10.2847 102.359 9.25889C101.948 8.35793 101.285 7.5331 100.398 7.09274C99.7084 6.7504 98.7465 6.54282 97.5324 6.80932Z" fill="#FF74BF"/>
<path d="M41.942 109.868L28.9689 122.841C28.539 123.271 28.539 123.968 28.9689 124.398C29.1838 124.613 29.4654 124.72 29.747 124.72C30.0285 124.72 30.3101 124.613 30.525 124.398L43.4981 111.424C43.928 110.994 43.928 110.298 43.4981 109.868C43.0682 109.438 42.3718 109.438 41.942 109.868Z" fill="url(#paint0_linear)"/>
<path d="M100.688 37.9229C100.619 37.4392 100.239 37.0588 99.7547 36.989C99.306 36.9245 88.5887 35.4586 74.9149 39.4027C65.4397 42.1358 53.1938 47.979 42.6544 60.4316C41.509 59.962 38.3474 58.8763 33.9447 59.063C28.9452 59.2618 21.3015 61.1855 13.2785 69.2166C13.0028 69.4928 12.8937 69.8937 12.9921 70.2709C13.0899 70.6492 13.38 70.9458 13.7551 71.0533L33.2901 76.6255L36.1215 79.46L29.8028 85.7851C29.3735 86.2149 29.3735 86.9113 29.8028 87.3412L50.3879 107.949C50.5942 108.156 50.8742 108.272 51.1665 108.272C51.4588 108.272 51.7388 108.156 51.9451 107.949L58.2622 101.625L60.9976 104.363L66.5646 123.919C66.6715 124.295 66.9692 124.586 67.347 124.683C67.4383 124.707 67.5313 124.719 67.6232 124.719C67.9117 124.719 68.1928 124.605 68.4018 124.396C82.0488 110.735 78.311 97.9795 77.2198 95.1217C88.7086 85.3853 94.7235 74.0159 97.8184 63.9872C97.832 63.9558 97.8369 63.9235 97.8475 63.8913C102.218 49.6539 100.72 38.1472 100.688 37.9229ZM98.5978 39.0792C98.8343 41.7826 99.2614 50.6512 96.2669 61.4485L76.2373 41.4193C87.0303 38.4163 95.8965 38.8433 98.5978 39.0792ZM41.1897 62.2245C38.3957 65.7478 35.7433 69.7679 33.3151 74.3434L16.2005 69.4617C27.835 58.7539 38.0676 61.1206 41.1897 62.2245ZM51.1665 105.614L32.1371 86.5631L37.6773 81.0175L56.7064 100.067L51.1665 105.614ZM68.1562 121.471L63.315 104.465C67.8712 102.046 71.8879 99.4024 75.4182 96.6024C76.4964 99.8882 78.5803 110.095 68.1562 121.471ZM62.2788 102.531L35.2166 75.4391C45.8191 55.4128 60.9347 46.2531 73.8419 42.1362L95.5519 63.8456C91.4424 76.7709 82.293 91.912 62.2788 102.531Z" fill="url(#paint1_linear)"/>
<path d="M78.788 58.9051C76.8112 56.9266 74.1825 55.8369 71.3867 55.8369C68.5909 55.8369 65.9622 56.9266 63.9853 58.9051C59.9053 62.99 59.9053 69.6359 63.9853 73.7218C65.9622 75.7003 68.5909 76.7901 71.3867 76.7901C74.1825 76.7901 76.8112 75.7003 78.788 73.7218C82.8681 69.6359 82.8681 62.99 78.788 58.9051ZM77.2308 72.1657C75.6698 73.7283 73.5941 74.5891 71.3867 74.5891C69.1793 74.5891 67.1035 73.7283 65.5425 72.1657C62.319 68.9384 62.319 63.6875 65.5425 60.4613C67.1035 58.8987 69.1793 58.0379 71.3867 58.0379C73.5941 58.0379 75.6698 58.8987 77.2308 60.4613C80.4543 63.6875 80.4543 68.9384 77.2308 72.1657Z" fill="url(#paint2_linear)"/>
<path d="M35.6523 102.023C35.2225 101.593 34.5261 101.593 34.0962 102.023L13.2785 122.84C12.8486 123.27 12.8486 123.967 13.2785 124.396C13.4934 124.611 13.775 124.719 14.0565 124.719C14.3381 124.719 14.6197 124.611 14.8346 124.396L35.6523 103.579C36.0822 103.149 36.0822 102.452 35.6523 102.023Z" fill="url(#paint3_linear)"/>
<path d="M14.057 109.027C14.3386 109.027 14.6202 108.92 14.8351 108.705L27.8071 95.7335C28.237 95.3037 28.237 94.6073 27.8071 94.1774C27.3772 93.7475 26.6808 93.7475 26.2509 94.1774L13.2789 107.149C12.8491 107.579 12.8491 108.275 13.2789 108.705C13.4939 108.92 13.7755 109.027 14.057 109.027Z" fill="url(#paint4_linear)"/>
<defs>
<linearGradient id="paint0_linear" x1="36.5757" y1="121.029" x2="36.5757" y2="112.755" gradientUnits="userSpaceOnUse">
<stop stop-color="#6D5E92"/>
<stop offset="1" stop-color="#272C41"/>
</linearGradient>
<linearGradient id="paint1_linear" x1="100.961" y1="86.598" x2="12.9565" y2="86.598" gradientUnits="userSpaceOnUse">
<stop stop-color="#6D5E92"/>
<stop offset="1" stop-color="#272C41"/>
</linearGradient>
<linearGradient id="paint2_linear" x1="81.8481" y1="67.7184" x2="60.9253" y2="67.7184" gradientUnits="userSpaceOnUse">
<stop stop-color="#6D5E92"/>
<stop offset="1" stop-color="#272C41"/>
</linearGradient>
<linearGradient id="paint3_linear" x1="35.9748" y1="114.753" x2="12.9561" y2="114.753" gradientUnits="userSpaceOnUse">
<stop stop-color="#6D5E92"/>
<stop offset="1" stop-color="#272C41"/>
</linearGradient>
<linearGradient id="paint4_linear" x1="28.1295" y1="102.458" x2="12.9565" y2="102.458" gradientUnits="userSpaceOnUse">
<stop stop-color="#6D5E92"/>
<stop offset="1" stop-color="#272C41"/>
</linearGradient>
</defs>
</svg>
